<mxfile host="app.diagrams.net" modified="2024-03-29T14:44:16.063Z" agent="Mozilla/5.0 (Windows NT 10.0; Win64; x64) AppleWebKit/537.36 (KHTML, like Gecko) Chrome/123.0.0.0 Safari/537.36" version="24.2.1" etag="B9u_UyPucMkjNnmciYtV" type="github">
  <diagram name="Page-1" id="wviY_SHR4x1JB98v9FGR">
    <mxGraphModel>
      <root>
        <mxCell id="0" />
        <mxCell id="1" parent="0" />
      </root>
    </mxGraphModel>
  </diagram>
</mxfile>
